HIERARCHY
ROOT Hips
{
 OFFSET 0.000000 0.000000 0.000000
 CHANNELS 6 Xposition Yposition Zposition Yrotation Xrotation Zrotation
 JOINT Chest
 {
  OFFSET 0.000000 9.581000 -0.001100
  CHANNELS 3 Yrotation Xrotation Zrotation
  JOINT Chest2
  {
   OFFSET 0.000000 9.561100 0.002200
   CHANNELS 3 Yrotation Xrotation Zrotation
   JOINT Chest3
   {
    OFFSET 0.000000 9.521100 0.000000
    CHANNELS 3 Yrotation Xrotation Zrotation
    JOINT Chest4
    {
     OFFSET 0.000000 9.511400 0.000000
     CHANNELS 3 Yrotation Xrotation Zrotation
     JOINT Neck
     {
      OFFSET 0.000000 14.375100 0.000000
      CHANNELS 3 Yrotation Xrotation Zrotation
      JOINT Head
      {
       OFFSET 0.000000 8.901200 0.004600
       CHANNELS 3 Yrotation Xrotation Zrotation
       End Site
       {
        OFFSET 0.000000 16.962200 0.002400
       }
      }
     }
     JOINT RightCollar
     {
      OFFSET -2.920100 9.518800 0.000000
      CHANNELS 3 Yrotation Xrotation Zrotation
      JOINT RightShoulder
      {
       OFFSET -13.664500 0.000000 0.000000
       CHANNELS 3 Yrotation Xrotation Zrotation
       JOINT RightElbow
       {
        OFFSET 0.000000 -29.999200 0.000000
        CHANNELS 3 Yrotation Xrotation Zrotation
        JOINT RightWrist
        {
         OFFSET 0.000000 -24.253600 0.000000
         CHANNELS 3 Yrotation Xrotation Zrotation
         End Site
         {
          OFFSET 0.000000 -17.918900 0.000000
         }
        }
       }
      }
     }
     JOINT LeftCollar
     {
      OFFSET 2.920100 9.518800 0.000000
      CHANNELS 3 Yrotation Xrotation Zrotation
      JOINT LeftShoulder
      {
       OFFSET 13.664500 0.000000 0.000000
       CHANNELS 3 Yrotation Xrotation Zrotation
       JOINT LeftElbow
       {
        OFFSET 0.000000 -29.999200 0.000000
        CHANNELS 3 Yrotation Xrotation Zrotation
        JOINT LeftWrist
        {
         OFFSET 0.000000 -24.253600 0.000000
         CHANNELS 3 Yrotation Xrotation Zrotation
         End Site
         {
          OFFSET 0.000000 -17.918900 0.000000
         }
        }
       }
      }
     }
    }
   }
  }
 }
 JOINT RightHip
 {
  OFFSET -7.797300 0.005300 0.000500
  CHANNELS 3 Yrotation Xrotation Zrotation
  JOINT RightKnee
  {
   OFFSET 0.000000 -40.663400 -0.000500
   CHANNELS 3 Yrotation Xrotation Zrotation
   JOINT RightAnkle
   {
    OFFSET 0.000000 -39.523700 -0.000900
    CHANNELS 3 Yrotation Xrotation Zrotation
    JOINT RightToe
    {
     OFFSET 0.000000 -6.418000 14.485300
     CHANNELS 3 Yrotation Xrotation Zrotation
     End Site
     {
      OFFSET 0.000000 -1.465200 6.326400
     }
    }
   }
  }
 }
 JOINT LeftHip
 {
  OFFSET 7.797300 0.005300 0.000500
  CHANNELS 3 Yrotation Xrotation Zrotation
  JOINT LeftKnee
  {
   OFFSET 0.000000 -40.663400 -0.000500
   CHANNELS 3 Yrotation Xrotation Zrotation
   JOINT LeftAnkle
   {
    OFFSET 0.000000 -39.523700 -0.000900
    CHANNELS 3 Yrotation Xrotation Zrotation
    JOINT LeftToe
    {
     OFFSET 0.000000 -6.418000 14.485300
     CHANNELS 3 Yrotation Xrotation Zrotation
     End Site
     {
      OFFSET 0.000000 -1.465200 6.326400
     }
    }
   }
  }
 }
}
MOTION
Frames: 15
Frame Time: 0.008333
-23.249794 126.349478 58.766568 -174.590972 -26.319439 -1.208261 -2.687072 20.746027 -0.253114 -0.356770 2.662192 0.043295 -0.544771 4.386815 0.056475 -2.187241 17.743042 -0.044284 5.747667 18.093358 -0.014432 6.091434 -6.471328 -1.341232 -5.682127 0.324918 -2.188886 -3.502918 -3.806369 -7.144376 149.627442 -70.363497 -134.710554 0.234259 -27.143564 -53.293412 -2.636809 0.532706 1.803666 8.380013 -6.729904 6.327042 -136.209501 -71.336019 129.153047 -29.023431 -15.645566 44.031001 -7.969528 -58.850506 5.299459 -30.513173 70.988544 -29.762072 16.251840 25.330091 4.133270 -0.130551 -0.005357 -0.057836 -12.991182 -50.844463 -4.362558 15.449862 70.962657 6.292893 0.631264 8.007540 5.381641 0.012237 -0.015861 0.005421
-23.239812 126.349693 58.755890 -174.570852 -26.319734 -1.266447 -2.661494 20.770197 -0.195415 -0.328390 2.685214 0.038515 -0.480544 4.435276 0.037656 -2.175498 17.716737 -0.029412 5.604657 18.086893 -0.021973 5.980537 -6.494147 -1.316152 -5.740123 0.336335 -2.145180 -3.538374 -3.821720 -7.081732 149.824814 -70.247151 -135.030747 0.211283 -27.078973 -53.254229 -2.670929 0.556243 1.868311 8.422695 -6.651023 6.393545 -136.367650 -71.310143 129.325271 -29.013509 -15.663815 44.033966 -7.768355 -58.989707 5.121504 -30.801105 71.109476 -29.917234 16.172299 25.586089 4.143628 -0.044791 0.032490 -0.019856 -13.063043 -50.839560 -4.275682 15.411219 71.015834 6.241438 0.646519 7.961447 5.399498 0.002016 -0.012596 0.000893
-23.232122 126.345903 58.753223 -174.586631 -26.268873 -1.292240 -2.545113 20.809304 -0.153557 -0.328472 2.675191 0.041018 -0.532170 4.380216 0.058606 -2.083062 17.757414 -0.050618 5.470950 18.093850 -0.036303 5.874732 -6.504506 -1.296002 -5.801642 0.333036 -2.090954 -3.587441 -3.854969 -7.046296 149.992757 -70.154043 -135.293739 0.189600 -27.016610 -53.188428 -2.757577 0.526122 1.941517 8.490720 -6.531950 6.457475 -136.485135 -71.290716 129.463799 -29.003685 -15.680783 44.036698 -7.499338 -59.182383 4.934227 -31.317102 71.087046 -30.288807 16.279596 26.007665 4.210828 -0.009982 0.038668 -0.004426 -13.100078 -50.890543 -4.197717 15.394925 71.058424 6.218395 0.648092 7.933116 5.401554 -0.001354 -0.013739 -0.000600
-23.221100 126.338149 58.758570 -174.630489 -26.162057 -1.322936 -2.463822 20.727234 -0.095078 -0.288797 2.713495 0.027227 -0.560638 4.342423 0.073663 -2.061062 17.759810 -0.051301 5.405208 18.139331 -0.079994 5.767068 -6.495398 -1.290227 -5.806794 0.353086 -2.081322 -3.621248 -3.835708 -6.985424 150.104982 -69.994594 -135.506405 0.163679 -26.957925 -53.084581 -2.781628 0.529372 1.973362 8.540977 -6.431055 6.513884 -136.558967 -71.278568 129.569570 -28.991258 -15.693002 44.032120 -7.267360 -59.424885 4.824152 -32.014907 70.975034 -30.809888 16.484407 26.549808 4.254157 0.022502 0.026205 0.009974 -13.145860 -50.999532 -4.063861 15.372517 71.116494 6.180041 0.642943 7.889036 5.409380 -0.003924 -0.005325 -0.001738
-23.209396 126.335043 58.754793 -174.643835 -26.112633 -1.378265 -2.406871 20.703874 -0.028328 -0.267558 2.748492 0.020270 -0.542351 4.331851 0.068798 -2.060984 17.738420 -0.036256 5.341030 18.185864 -0.118197 5.671400 -6.496240 -1.290958 -5.817359 0.355605 -2.071141 -3.655699 -3.751709 -6.890043 150.169602 -69.757939 -135.671156 0.131646 -26.903657 -52.936766 -2.766730 0.556240 2.009325 8.541138 -6.377545 6.556440 -136.589599 -71.275630 129.638071 -28.963050 -15.757222 44.034415 -7.118126 -59.602980 4.773388 -32.725172 70.831780 -31.359730 16.679316 27.123629 4.277203 0.080362 0.044600 0.035631 -13.208119 -51.042917 -3.935837 15.321392 71.175347 6.122314 0.640881 7.847018 5.412214 -0.004143 -0.001207 -0.001836
-23.196416 126.330804 58.753977 -174.667608 -26.041034 -1.436782 -2.319136 20.691931 0.046841 -0.269564 2.760047 0.024716 -0.495070 4.381675 0.052798 -1.995644 17.753022 -0.033709 5.212562 18.114950 -0.105200 5.590174 -6.519731 -1.297726 -5.907698 0.252844 -1.990577 -3.681900 -3.716909 -6.835385 150.202691 -69.567668 -135.811951 0.096911 -26.853619 -52.756053 -2.838891 0.470095 2.098315 8.547594 -6.338475 6.596357 -136.588518 -71.280205 129.667163 -28.950249 -15.741729 44.006937 -7.051077 -59.795708 4.813740 -33.411034 70.651064 -31.918990 16.850693 27.756857 4.330710 0.121288 0.053808 0.053786 -13.269715 -51.113012 -3.798679 15.250346 71.238987 6.055884 0.647824 7.806398 5.412574 -0.004975 0.002502 -0.002205
-23.190500 126.327567 58.752370 -174.690964 -25.977700 -1.455448 -2.233974 20.750576 0.084033 -0.285022 2.713579 0.032070 -0.478751 4.406097 0.049430 -1.957541 17.767656 -0.030601 5.129474 18.053227 -0.121630 5.517445 -6.568344 -1.307353 -5.953946 0.174225 -1.939119 -3.705927 -3.718475 -6.807880 150.229110 -69.393825 -135.947707 0.063601 -26.806167 -52.560721 -2.849141 0.410502 2.145563 8.548454 -6.329620 6.637336 -136.587311 -71.292374 129.682876 -28.943186 -15.727815 43.980164 -7.006619 -59.978287 4.850097 -34.021598 70.452489 -32.453132 17.039958 28.434022 4.467791 0.113684 0.045674 0.050410 -13.274997 -51.175340 -3.743783 15.165491 71.284932 5.984958 0.660017 7.772455 5.413281 -0.004040 0.004934 -0.001790
-23.187527 126.324929 58.750807 -174.705727 -25.916524 -1.461627 -2.179550 20.777792 0.106723 -0.289240 2.699705 0.034687 -0.472267 4.412765 0.049857 -1.929166 17.781031 -0.025790 5.070517 17.981118 -0.128165 5.445507 -6.615529 -1.341236 -5.946221 0.189907 -1.899595 -3.765283 -3.795540 -6.782185 150.215942 -69.204651 -136.053252 0.030325 -26.764412 -52.368492 -2.845325 0.368132 2.169275 8.523093 -6.355385 6.659882 -136.464198 -71.310552 129.593560 -28.929182 -15.754866 43.962329 -7.042446 -60.154677 4.924305 -34.515916 70.261895 -32.930876 17.281584 29.113053 4.670788 0.101168 0.047159 0.044863 -13.258259 -51.235703 -3.732090 15.062953 71.319701 5.910646 0.676808 7.746065 5.408763 -0.002622 0.006745 -0.001162
-23.187349 126.323273 58.748483 -174.712929 -25.864921 -1.455889 -2.162793 20.760040 0.109542 -0.287422 2.701801 0.034854 -0.460685 4.451562 0.051680 -1.924190 17.751982 -0.022690 5.039557 17.954463 -0.145741 5.377249 -6.682427 -1.381495 -5.944595 0.209227 -1.886584 -3.753058 -3.741961 -6.683518 150.060688 -68.897144 -136.061349 -0.004166 -26.733311 -52.193713 -2.808739 0.374486 2.175940 8.496692 -6.385262 6.681453 -136.377603 -71.327618 129.538988 -28.903139 -15.814552 43.951851 -7.146066 -60.317836 5.017209 -34.886131 70.097627 -33.337882 17.580422 29.768039 4.924734 0.085465 0.064907 0.037912 -13.224263 -51.286666 -3.759993 14.951835 71.343789 5.837180 0.698830 7.725702 5.400988 -0.002080 0.008024 -0.000921
-23.190801 126.323512 58.743318 -174.718961 -25.839070 -1.431341 -2.157293 20.765817 0.090970 -0.285845 2.703780 0.035102 -0.455611 4.483477 0.055425 -1.915525 17.729224 -0.022075 5.000746 17.935120 -0.185663 5.318733 -6.776535 -1.412928 -5.941011 0.230008 -1.880703 -3.753554 -3.706824 -6.603824 149.937581 -68.612738 -136.091648 -0.030899 -26.703177 -52.043879 -2.768832 0.379257 2.181713 8.587346 -6.358041 6.741093 -136.727072 -71.328440 129.812485 -28.916178 -15.799798 43.908023 -7.266018 -60.455031 5.080810 -35.138341 69.967519 -33.658623 17.900038 30.400509 5.212599 0.048198 0.084927 0.021392 -13.158139 -51.311866 -3.838274 14.849715 71.358070 5.777639 0.722084 7.709746 5.393036 -0.001720 0.007800 -0.000762
-23.197606 126.323948 58.738392 -174.727632 -25.819523 -1.385924 -2.163182 20.800527 0.051801 -0.275190 2.744451 0.038950 -0.459028 4.431894 0.052809 -1.866757 17.812630 -0.010804 4.918746 17.815591 -0.228696 5.267651 -6.868734 -1.455480 -5.972811 0.163195 -1.868540 -3.761533 -3.677510 -6.530113 149.847791 -68.340698 -136.148478 -0.045742 -26.663174 -51.924235 -2.768156 0.292284 2.191881 8.649741 -6.341589 6.768086 -137.029536 -71.310897 130.035016 -28.947208 -15.742819 43.877205 -7.350556 -60.591969 5.073371 -35.264487 69.878954 -33.861310 18.226875 31.016559 5.523261 -0.008974 0.099504 -0.003974 -13.062171 -51.331763 -3.957499 14.830987 71.358442 5.798071 0.728288 7.700781 5.388532 -0.001639 0.006413 -0.000726
-23.205795 126.324853 58.732547 -174.731299 -25.812671 -1.334873 -2.171160 20.839000 0.007015 -0.268156 2.752587 0.036765 -0.469697 4.390703 0.052242 -1.831870 17.862991 -0.009198 4.859535 17.745472 -0.270340 5.215686 -6.950407 -1.489903 -5.985614 0.155340 -1.859032 -3.779366 -3.685287 -6.486658 149.803310 -68.128183 -136.236209 -0.133797 -26.587707 -51.806787 -2.759034 0.263594 2.203226 8.694292 -6.323405 6.776871 -137.122487 -71.295101 130.111477 -28.954531 -15.746945 43.833346 -7.378571 -60.724954 4.983187 -35.275473 69.836539 -33.940006 18.573609 31.621622 5.851448 -0.065435 0.101028 -0.029031 -12.946880 -51.341191 -4.117509 14.855021 71.351482 5.882822 0.731953 7.696303 5.377122 -0.005635 0.004747 -0.002497
-23.213544 126.325128 58.727437 -174.739653 -25.805727 -1.283266 -2.173537 20.869923 -0.039120 -0.262944 2.748934 0.034483 -0.465256 4.403858 0.054495 -1.838110 17.828806 -0.006860 4.829628 17.721513 -0.317181 5.158989 -7.022843 -1.519981 -5.976851 0.178621 -1.860054 -3.793774 -3.674121 -6.444843 149.789069 -67.931264 -136.348502 -0.204206 -26.517537 -51.696887 -2.735260 0.279548 2.206690 8.734554 -6.296065 6.775468 -137.192331 -71.266092 130.187568 -28.958820 -15.747919 43.801002 -7.339479 -60.867741 4.829240 -35.212068 69.833561 -33.926385 18.901236 32.211402 6.185650 -0.117166 0.092016 -0.051984 -12.884063 -51.354580 -4.229067 14.718287 71.351841 5.784892 0.783397 7.693519 5.359999 -0.001812 0.002899 -0.000803
-23.221637 126.324012 58.724232 -174.757267 -25.789769 -1.223074 -2.166187 20.880613 -0.092193 -0.258382 2.756178 0.035414 -0.441795 4.447346 0.051507 -1.833543 17.798222 -0.000473 4.746591 17.654656 -0.406572 5.120623 -7.082266 -1.501722 -6.008091 0.143788 -1.840531 -3.794103 -3.591138 -6.369558 149.800820 -67.696384 -136.485084 -0.169749 -26.462733 -51.652459 -2.749316 0.255815 2.227368 8.743238 -6.290263 6.769380 -137.107661 -71.292960 130.182369 -28.963316 -15.804317 43.748199 -7.222156 -61.029492 4.622609 -35.120493 69.856111 -33.865488 19.142379 32.787633 6.501156 -0.163644 0.071312 -0.072587 -12.832514 -51.378991 -4.320468 14.769072 71.344084 5.839912 0.787509 7.693229 5.352632 -0.001985 -0.000310 -0.000879
-23.226931 126.321627 58.722362 -174.777029 -25.764846 -1.175767 -2.133744 20.923614 -0.122911 -0.267871 2.724346 0.035018 -0.448972 4.430608 0.053071 -1.806584 17.827873 0.000073 4.695061 17.600622 -0.435542 5.057199 -7.143354 -1.535394 -6.014064 0.138908 -1.830220 -3.827135 -3.540384 -6.277188 149.877109 -67.478982 -136.674285 -0.139669 -26.405560 -51.594670 -2.767296 0.224994 2.245749 8.764389 -6.241010 6.747406 -137.222545 -71.264018 130.322760 -28.943192 -15.768898 43.749547 -7.083576 -61.201477 4.430588 -35.021951 69.890154 -33.787302 19.322729 33.347436 6.779963 -0.179422 0.044409 -0.079554 -12.817481 -51.413881 -4.363642 14.814799 71.342059 5.872671 0.798132 7.692359 5.346034 -0.000827 -0.002598 -0.000366
